<svg xmlns="http://www.w3.org/2000/svg" xmlns:xlink="http://www.w3.org/1999/xlink" contentStyleType="text/css" height="568px" preserveAspectRatio="none" style="width:378px;height:568px;background:#FFFFFF;" version="1.1" viewBox="0 0 378 568" width="378px" zoomAndPan="magnify"><title>Module STU &#8212; H&#7885;c v&#224; &#244;n t&#7853;p</title><defs/><g><text fill="#000000" font-family="Arial" font-size="14" font-weight="bold" lengthAdjust="spacing" textLength="194.4551" x="88.2725" y="23.3608">Module STU &#8212; H&#7885;c v&#224; &#244;n t&#7853;p</text><!--cluster ENG//HABIT--><g id="cluster_ENG//HABIT"><rect fill="none" height="521" rx="2.5" ry="2.5" style="stroke:#9AA9BF;stroke-width:1.0;" width="228" x="144" y="41.0986"/><text fill="#000000" font-family="Arial" font-size="12" font-weight="bold" lengthAdjust="spacing" textLength="69.334" x="223.333" y="54.5508">ENG//HABIT</text></g><!--cluster H?c v? ?n t?p--><g id="cluster_H&#7885;c v&#224; &#244;n t&#7853;p"><rect fill="none" height="489" rx="2.5" ry="2.5" style="stroke:#9AA9BF;stroke-width:1.0;" width="212" x="152" y="65.0986"/><text fill="#000000" font-family="Arial" font-size="12" font-weight="bold" lengthAdjust="spacing" textLength="78.6797" x="218.6602" y="78.5508">H&#7885;c v&#224; &#244;n t&#7853;p</text></g><!--entity A_LEARNER--><g id="elem_A_LEARNER"><ellipse cx="34.2949" cy="374.5986" fill="#FFFFFF" rx="8" ry="8" style="stroke:#3B5B8C;stroke-width:0.5;"/><path d="M34.2949,382.5986 L34.2949,409.5986 M21.2949,390.5986 L47.2949,390.5986 M34.2949,409.5986 L21.2949,424.5986 M34.2949,409.5986 L47.2949,424.5986 " fill="none" style="stroke:#3B5B8C;stroke-width:0.5;"/><text fill="#000000" font-family="Arial" font-size="12" lengthAdjust="spacing" textLength="56.5898" x="6" y="437.5508">Ng&#432;&#7901;i h&#7885;c</text></g><g id="elem_UC_STU_01"><ellipse cx="258.0237" cy="186.9869" fill="#FFFFFF" rx="52.5237" ry="20.8883" style="stroke:#3B5B8C;stroke-width:0.5;"/><text fill="#000000" font-family="Arial" font-size="12" lengthAdjust="spacing" textLength="58.0371" x="229.0052" y="183.7901">H&#7885;c b&#7897; th&#7867;</text><text fill="#000000" font-family="Arial" font-size="10" lengthAdjust="spacing" textLength="52.2266" x="231.9104" y="195.6803">UC-STU-01</text></g><g id="elem_UC_STU_02"><ellipse cx="258.0727" cy="342.9869" fill="#FFFFFF" rx="85.0727" ry="20.8883" style="stroke:#3B5B8C;stroke-width:0.5;"/><text fill="#000000" font-family="Arial" font-size="12" lengthAdjust="spacing" textLength="104.0684" x="206.0385" y="339.7901">&#212;n t&#7853;p th&#7867; theo l&#7883;ch</text><text fill="#000000" font-family="Arial" font-size="10" lengthAdjust="spacing" textLength="52.2266" x="231.9594" y="351.6803">UC-STU-02</text></g><g id="elem_UC_STU_03"><ellipse cx="258.0072" cy="402.9869" fill="#FFFFFF" rx="77.5072" ry="20.8883" style="stroke:#3B5B8C;stroke-width:0.5;"/><text fill="#000000" font-family="Arial" font-size="12" lengthAdjust="spacing" textLength="93.3691" x="211.3227" y="399.7901">&#212;n nhanh (Cram)</text><text fill="#000000" font-family="Arial" font-size="10" lengthAdjust="spacing" textLength="52.2266" x="231.894" y="411.6803">UC-STU-03</text></g><g id="elem_UC_STU_04"><ellipse cx="257.9844" cy="109.9869" fill="#FFFFFF" rx="84.4844" ry="20.8883" style="stroke:#3B5B8C;stroke-width:0.5;"/><text fill="#000000" font-family="Arial" font-size="12" lengthAdjust="spacing" textLength="103.2363" x="206.3662" y="106.7901">Tr&#7843; l&#7901;i v&#224; ch&#7845;m th&#7867;</text><text fill="#000000" font-family="Arial" font-size="10" lengthAdjust="spacing" textLength="52.2266" x="231.8711" y="118.6803">UC-STU-04</text></g><g id="elem_UC_STU_05"><ellipse cx="258.2489" cy="273.2442" fill="#FFFFFF" rx="90.7489" ry="30.6455" style="stroke:#3B5B8C;stroke-width:0.5;"/><text fill="#000000" font-family="Arial" font-size="12" lengthAdjust="spacing" textLength="112.0957" x="202.2011" y="263.148">Ghi nh&#7853;n ho&#224;n th&#224;nh</text><text fill="#000000" font-family="Arial" font-size="12" lengthAdjust="spacing" textLength="52.043" x="232.2274" y="276.9468">phi&#234;n h&#7885;c</text><text fill="#000000" font-family="Arial" font-size="10" lengthAdjust="spacing" textLength="52.2266" x="232.1356" y="288.8369">UC-STU-05</text></g><g id="elem_UC_STU_06"><ellipse cx="257.8657" cy="464.0718" fill="#FFFFFF" rx="97.8657" ry="21.9731" style="stroke:#3B5B8C;stroke-width:0.5;"/><text fill="#000000" font-family="Arial" font-size="12" lengthAdjust="spacing" textLength="129.416" x="193.1577" y="460.875">Xem th&#7889;ng k&#234; h&#7885;c v&#224; &#244;n</text><text fill="#000000" font-family="Arial" font-size="10" lengthAdjust="spacing" textLength="52.2266" x="231.7524" y="472.7651">UC-STU-06</text></g><g id="elem_UC_STU_07"><ellipse cx="257.7512" cy="524.9869" fill="#FFFFFF" rx="82.2512" ry="20.8883" style="stroke:#3B5B8C;stroke-width:0.5;"/><text fill="#000000" font-family="Arial" font-size="12" lengthAdjust="spacing" textLength="100.0781" x="207.7121" y="521.7901">Xem l&#7883;ch s&#7917; &#244;n t&#7853;p</text><text fill="#000000" font-family="Arial" font-size="10" lengthAdjust="spacing" textLength="52.2266" x="231.6379" y="533.6803">UC-STU-07</text></g><polygon fill="#3B5B8C" points="205.2728,200.6626,195.4567,199.8606,200.5536,202.3145,198.0997,207.4114,205.2728,200.6626" style="stroke:#3B5B8C;stroke-width:1.0;"/><path d="M51.0172,365.8554 C68.5494,327.8395 100.4233,269.4072 144,233.0986 C161.6561,218.3874 178.981,209.8655 199.6097,202.6448 " fill="none" style="stroke:#3B5B8C;stroke-width:1.0;"/><polygon fill="#3B5B8C" points="173.5388,364.1311,163.8233,362.5158,168.6986,365.3849,165.8295,370.2602,173.5388,364.1311" style="stroke:#3B5B8C;stroke-width:1.0;"/><path d="M63.3565,394.3207 C69.1731,392.5459 75.2763,390.7264 81,389.0986 C111.0737,380.5461 138.4,373.2336 167.7305,365.6357 " fill="none" style="stroke:#3B5B8C;stroke-width:1.0;"/><polygon fill="#3B5B8C" points="180.3894,403.0986,171.3894,399.0986,175.3894,403.0986,171.3894,407.0986,180.3894,403.0986" style="stroke:#3B5B8C;stroke-width:1.0;"/><path d="M63.1053,403.0986 C92.3299,403.0986 133.7572,403.0986 174.3894,403.0986 " fill="none" style="stroke:#3B5B8C;stroke-width:1.0;"/><polygon fill="#3B5B8C" points="176.439,442.0191,168.8197,435.7784,171.6176,440.6949,166.701,443.4928,176.439,442.0191" style="stroke:#3B5B8C;stroke-width:1.0;"/><path d="M63.1448,410.7588 C85.0688,416.8299 116.4906,425.5221 144,433.0986 C154.4928,435.9885 159.7493,437.4354 170.6533,440.4301 " fill="none" style="stroke:#3B5B8C;stroke-width:1.0;"/><polygon fill="#3B5B8C" points="175.4075,508.1186,168.1233,501.4898,170.6615,506.5452,165.606,509.0834,175.4075,508.1186" style="stroke:#3B5B8C;stroke-width:1.0;"/><path d="M63.2664,432.7878 C83.7776,453.0758 113.3539,479.0896 144,495.0986 C153.805,500.2206 158.8614,502.6334 169.7123,506.2306 " fill="none" style="stroke:#3B5B8C;stroke-width:1.0;"/><polygon fill="#3B5B8C" points="258,131.1138,254,140.1138,258,136.1138,262,140.1138,258,131.1138" style="stroke:#3B5B8C;stroke-width:1.0;"/><path d="M258,166.058 C258,155.1932 258,147.9749 258,137.1138 " fill="none" style="stroke:#3B5B8C;stroke-width:1.0;stroke-dasharray:7.0,7.0;"/><text fill="#000000" font-family="Arial" font-size="12" lengthAdjust="spacing" textLength="51.375" x="221" y="153.5508">&#171;include&#187;</text><polygon fill="#3B5B8C" points="173.2016,111.3724,163.6135,109.121,168.2893,112.3049,165.1054,116.9807,173.2016,111.3724" style="stroke:#3B5B8C;stroke-width:1.0;"/><path d="M172.7976,330.8232 C162.1006,326.3166 152.0931,320.2488 144,312.0986 C91.0564,258.7821 58.6227,206.7157 105,147.5986 C121.3741,126.7267 141.4111,117.4068 167.3068,112.4914 " fill="none" style="stroke:#3B5B8C;stroke-width:1.0;stroke-dasharray:7.0,7.0;"/><text fill="#000000" font-family="Arial" font-size="12" lengthAdjust="spacing" textLength="51.375" x="83" y="161.0508">&#171;include&#187;</text><polygon fill="#3B5B8C" points="173.1587,130.3988,163.3133,130.1404,168.538,132.3089,166.3695,137.5336,173.1587,130.3988" style="stroke:#3B5B8C;stroke-width:1.0;"/><path d="M180.4067,394.7927 C166.8262,390.1905 153.8996,383.3117 144,373.0986 C85.0614,312.2936 67.2841,262.4177 105,186.5986 C118.4914,159.4772 139.9761,144.1158 167.6138,132.6909 " fill="none" style="stroke:#3B5B8C;stroke-width:1.0;stroke-dasharray:7.0,7.0;"/><text fill="#000000" font-family="Arial" font-size="12" lengthAdjust="spacing" textLength="51.375" x="83" y="200.0508">&#171;include&#187;</text><polygon fill="#3B5B8C" points="258,208.1263,254,217.1263,258,213.1263,262,217.1263,258,208.1263" style="stroke:#3B5B8C;stroke-width:1.0;"/><path d="M258,242.5361 C258,231.1422 258,224.4737 258,214.1263 " fill="none" style="stroke:#3B5B8C;stroke-width:1.0;stroke-dasharray:7.0,7.0;"/><text fill="#000000" font-family="Arial" font-size="12" lengthAdjust="spacing" textLength="49.377" x="222" y="230.3008">&#171;extend&#187;</text><!--SRC=[bPJFYzf05CVl-IjUxQKzM8tnHrqa4Atk5befgq8F1PbDncGmpiXaqbrRXDvB3uMzz51OABqiBFJGapaA_J_IlwHZucg28snpcC1xt_dCzxrvpACvH-uCWOyMB1GGpB1056a-dWWG33XnFG4EuTWMX54jc18wHnpD8F2Gmou9TM62_01dCWwUeD0NFKP57yqmM9mWNvqVa0yOz4ecEKVs5Bbu81O-XisfYBf-bcvnpYuxp6SS7XljMljv9vCC0soZ0CD73Q0jIIvd8NMswbxoRJACEvZd6GVwLkiDua8wznVGONH2-0mxffbWgY_gUSnHSRlHQEezRPdnY6mXp_r_Xrd6hZ4f9wlMUuPLByjeqj-aZHVCTtBRjqq-tDoqh6QxjzsS1ourGOI4lMPEA7-3uGZ-Vhg6ipZwOiFxzGsiVrCGyUfkhcbfYOM- - -TN77qdu6r41K01MEDNNUkytptNj7qDXMx_j5GwizelXuN4qxs_WeAUAc1trLlDHHnz0-75g-WTRGLoh4xqiZdg5ANFObblbJOXCx4mwenbS5pMyvZrzVQ0b29NpC2Fey-sfo1MLCJA8P5wY7hmf2Ex_bI1CLGO8uyPydZrO-D4DdBJ2LlQ-paxMcjLXQpcaQSUaSvaiHGyjhwHXNjobNNEFRA-fUbzATWr5RkMPx_5YRVegtmPfklRb7L_XGfcNSMi7pBJgu0WZkxsmw3WDLIyXkGjvGXhk_c3Oj7CZ88wNZaIDux4wqVY3Mrt4ZpRXwjm0gqMeROVEjWqTwBAGqJ6GqIrh4XFHFXAO2hVfdy0]--></g></svg>