<svg xmlns="http://www.w3.org/2000/svg" xmlns:xlink="http://www.w3.org/1999/xlink" contentStyleType="text/css" height="793px" preserveAspectRatio="none" style="width:487px;height:793px;background:#FFFFFF;" version="1.1" viewBox="0 0 487 793" width="487px" zoomAndPan="magnify"><title>Vai tr&#242; Ng&#432;&#7901;i h&#7885;c &#8212; Ph&#7847;n 5 &#8212; T&#224;i kho&#7843;n v&#224; Th&#244;ng b&#225;o</title><defs/><g><text fill="#000000" font-family="Arial" font-size="14" font-weight="bold" lengthAdjust="spacing" textLength="368.5732" x="55.7134" y="23.3608">Vai tr&#242; Ng&#432;&#7901;i h&#7885;c &#8212; Ph&#7847;n 5 &#8212; T&#224;i kho&#7843;n v&#224; Th&#244;ng b&#225;o</text><!--cluster ENG//HABIT--><g id="cluster_ENG//HABIT"><rect fill="none" height="746" rx="2.5" ry="2.5" style="stroke:#9AA9BF;stroke-width:1.0;" width="232" x="249" y="41.0986"/><text fill="#000000" font-family="Arial" font-size="12" font-weight="bold" lengthAdjust="spacing" textLength="69.334" x="330.333" y="54.5508">ENG//HABIT</text></g><!--cluster X?c th?c v? t?i kho?n c? nh?n--><g id="cluster_X&#225;c th&#7921;c v&#224; t&#224;i kho&#7843;n c&#225; nh&#226;n"><rect fill="none" height="274" rx="2.5" ry="2.5" style="stroke:#9AA9BF;stroke-width:1.0;" width="200" x="265" y="65.0986"/><text fill="#000000" font-family="Arial" font-size="12" font-weight="bold" lengthAdjust="spacing" textLength="172.7461" x="278.627" y="78.5508">X&#225;c th&#7921;c v&#224; t&#224;i kho&#7843;n c&#225; nh&#226;n</text></g><!--cluster Th?ng b?o v? nh?c nh?--><g id="cluster_Th&#244;ng b&#225;o v&#224; nh&#7855;c nh&#7903;"><rect fill="none" height="432" rx="2.5" ry="2.5" style="stroke:#9AA9BF;stroke-width:1.0;" width="216" x="257" y="347.0986"/><text fill="#000000" font-family="Arial" font-size="12" font-weight="bold" lengthAdjust="spacing" textLength="135.8672" x="297.0664" y="360.5508">Th&#244;ng b&#225;o v&#224; nh&#7855;c nh&#7903;</text></g><!--entity A_AUTH--><g id="elem_A_AUTH"><ellipse cx="164.001" cy="370.3975" fill="#FFFFFF" rx="8" ry="8" style="stroke:#3B5B8C;stroke-width:0.5;"/><path d="M164.001,378.3975 L164.001,405.3975 M151.001,386.3975 L177.001,386.3975 M164.001,405.3975 L151.001,420.3975 M164.001,405.3975 L177.001,420.3975 " fill="none" style="stroke:#3B5B8C;stroke-width:0.5;"/><text fill="#000000" font-family="Arial" font-size="12" lengthAdjust="spacing" textLength="130.002" x="99" y="433.3496">Ng&#432;&#7901;i d&#249;ng &#273;&#227; x&#225;c th&#7921;c</text><text fill="#000000" font-family="Arial" font-size="12" font-style="italic" lengthAdjust="spacing" textLength="56.0332" x="135.9844" y="359.5508">&#171;abstract&#187;</text></g><!--entity A_LEARNER--><g id="elem_A_LEARNER"><ellipse cx="34.2949" cy="661.5986" fill="#FFFFFF" rx="8" ry="8" style="stroke:#3B5B8C;stroke-width:0.5;"/><path d="M34.2949,669.5986 L34.2949,696.5986 M21.2949,677.5986 L47.2949,677.5986 M34.2949,696.5986 L21.2949,711.5986 M34.2949,696.5986 L47.2949,711.5986 " fill="none" style="stroke:#3B5B8C;stroke-width:0.5;"/><text fill="#000000" font-family="Arial" font-size="12" lengthAdjust="spacing" textLength="56.5898" x="6" y="724.5508">Ng&#432;&#7901;i h&#7885;c</text></g><g id="elem_UC_AUTH_05"><ellipse cx="365.0215" cy="109.9869" fill="#FFFFFF" rx="53.5215" ry="20.8883" style="stroke:#3B5B8C;stroke-width:0.5;"/><text fill="#000000" font-family="Arial" font-size="12" lengthAdjust="spacing" textLength="54.7031" x="337.67" y="106.7901">&#272;&#259;ng xu&#7845;t</text><text fill="#000000" font-family="Arial" font-size="10" lengthAdjust="spacing" textLength="59.4482" x="335.2974" y="118.6803">UC-AUTH-05</text></g><g id="elem_UC_AUTH_06"><ellipse cx="365.1535" cy="180.2442" fill="#FFFFFF" rx="92.1535" ry="30.6455" style="stroke:#3B5B8C;stroke-width:0.5;"/><text fill="#000000" font-family="Arial" font-size="12" lengthAdjust="spacing" textLength="114.082" x="308.1124" y="170.148">C&#7853;p nh&#7853;t th&#244;ng tin c&#225;</text><text fill="#000000" font-family="Arial" font-size="12" lengthAdjust="spacing" textLength="26.6953" x="351.8058" y="183.9468">nh&#226;n</text><text fill="#000000" font-family="Arial" font-size="10" lengthAdjust="spacing" textLength="59.4482" x="335.4293" y="195.8369">UC-AUTH-06</text></g><g id="elem_UC_AUTH_07"><ellipse cx="364.8237" cy="249.9869" fill="#FFFFFF" rx="89.3237" ry="20.8883" style="stroke:#3B5B8C;stroke-width:0.5;"/><text fill="#000000" font-family="Arial" font-size="12" lengthAdjust="spacing" textLength="110.0801" x="309.7836" y="246.7901">Qu&#7843;n l&#253; &#7843;nh &#273;&#7841;i di&#7879;n</text><text fill="#000000" font-family="Arial" font-size="10" lengthAdjust="spacing" textLength="59.4482" x="335.0995" y="258.6803">UC-AUTH-07</text></g><g id="elem_UC_AUTH_08"><ellipse cx="364.9772" cy="309.9869" fill="#FFFFFF" rx="61.4772" ry="20.8883" style="stroke:#3B5B8C;stroke-width:0.5;"/><text fill="#000000" font-family="Arial" font-size="12" lengthAdjust="spacing" textLength="70.6992" x="329.6276" y="306.7901">&#272;&#7893;i m&#7853;t kh&#7849;u</text><text fill="#000000" font-family="Arial" font-size="10" lengthAdjust="spacing" textLength="59.4482" x="335.2531" y="318.6803">UC-AUTH-08</text></g><g id="elem_UC_NOTI_01"><ellipse cx="365.0385" cy="549.9869" fill="#FFFFFF" rx="69.0385" ry="20.8883" style="stroke:#3B5B8C;stroke-width:0.5;"/><text fill="#000000" font-family="Arial" font-size="12" lengthAdjust="spacing" textLength="81.3926" x="324.3422" y="546.7901">Xem th&#244;ng b&#225;o</text><text fill="#000000" font-family="Arial" font-size="10" lengthAdjust="spacing" textLength="56.1133" x="336.9819" y="558.6803">UC-NOTI-01</text></g><g id="elem_UC_NOTI_02"><ellipse cx="365.1871" cy="620.2442" fill="#FFFFFF" rx="100.1871" ry="30.6455" style="stroke:#3B5B8C;stroke-width:0.5;"/><text fill="#000000" font-family="Arial" font-size="12" lengthAdjust="spacing" textLength="125.4434" x="302.4655" y="610.148">&#272;&#225;nh d&#7845;u th&#244;ng b&#225;o &#273;&#227;</text><text fill="#000000" font-family="Arial" font-size="12" lengthAdjust="spacing" textLength="19.3477" x="355.5133" y="623.9468">&#273;&#7885;c</text><text fill="#000000" font-family="Arial" font-size="10" lengthAdjust="spacing" textLength="56.1133" x="337.1305" y="635.8369">UC-NOTI-02</text></g><g id="elem_UC_NOTI_03"><ellipse cx="365.1893" cy="391.9869" fill="#FFFFFF" rx="66.6893" ry="20.8883" style="stroke:#3B5B8C;stroke-width:0.5;"/><text fill="#000000" font-family="Arial" font-size="12" lengthAdjust="spacing" textLength="78.0703" x="326.1542" y="388.7901">Xo&#225; th&#244;ng b&#225;o</text><text fill="#000000" font-family="Arial" font-size="10" lengthAdjust="spacing" textLength="56.1133" x="337.1327" y="400.6803">UC-NOTI-03</text></g><g id="elem_UC_NOTI_04"><ellipse cx="365.0411" cy="689.9869" fill="#FFFFFF" rx="84.0411" ry="20.8883" style="stroke:#3B5B8C;stroke-width:0.5;"/><text fill="#000000" font-family="Arial" font-size="12" lengthAdjust="spacing" textLength="102.6094" x="313.7364" y="686.7901">C&#7845;u h&#236;nh nh&#7855;c nh&#7903;</text><text fill="#000000" font-family="Arial" font-size="10" lengthAdjust="spacing" textLength="56.1133" x="336.9844" y="698.6803">UC-NOTI-04</text></g><g id="elem_UC_NOTI_05"><ellipse cx="365.1929" cy="750.3372" fill="#FFFFFF" rx="94.1929" ry="21.2386" style="stroke:#3B5B8C;stroke-width:0.5;"/><text fill="#000000" font-family="Arial" font-size="12" lengthAdjust="spacing" textLength="119.3965" x="305.4946" y="747.1404">Qu&#7843;n l&#253; m&#7889;c nh&#7855;c h&#7885;c</text><text fill="#000000" font-family="Arial" font-size="10" lengthAdjust="spacing" textLength="56.1133" x="337.1362" y="759.0306">UC-NOTI-05</text></g><g id="elem_UC_NOTI_06"><ellipse cx="365.1736" cy="471.0642" fill="#FFF4D6" rx="90.1736" ry="39.9655" style="stroke:#B7791F;stroke-width:0.5;"/><text fill="#000000" font-family="Arial" font-size="12" font-style="italic" lengthAdjust="spacing" textLength="114.7148" x="305.3098" y="454.4919">&#171;Partially Confirmed&#187;</text><text fill="#000000" font-family="Arial" font-size="12" lengthAdjust="spacing" textLength="112.7402" x="306.2971" y="468.2907">&#272;&#259;ng k&#253; thi&#7871;t b&#7883; nh&#7853;n</text><text fill="#000000" font-family="Arial" font-size="12" lengthAdjust="spacing" textLength="76.0664" x="324.634" y="482.0896">th&#244;ng b&#225;o &#273;&#7849;y</text><text fill="#000000" font-family="Arial" font-size="10" lengthAdjust="spacing" textLength="56.1133" x="334.6106" y="493.9797">UC-NOTI-06</text></g><polygon fill="none" points="143.9981,436.511,131.4013,450.6998,142.4339,455.4201,143.9981,436.511" style="stroke:#3B5B8C;stroke-width:1.0;"/><path d="M51.3902,652.9593 C74.888,598.0389 111.7489,511.8856 136.9176,453.0599 " fill="none" style="stroke:#3B5B8C;stroke-width:1.0;"/><polygon fill="#3B5B8C" points="311.2091,113.0099,301.6612,110.5938,306.2815,113.8576,303.0177,118.4779,311.2091,113.0099" style="stroke:#3B5B8C;stroke-width:1.0;"/><path d="M167.2979,347.9703 C172.6554,291.6358 190.403,194.9192 249,140.0986 C265.7249,124.4516 283.6535,117.7507 305.296,114.0272 " fill="none" style="stroke:#3B5B8C;stroke-width:1.0;"/><polygon fill="#3B5B8C" points="272.9136,203.9606,263.0837,204.572,268.4794,206.2711,266.7804,211.6667,272.9136,203.9606" style="stroke:#3B5B8C;stroke-width:1.0;"/><path d="M176.2623,347.7379 C188.2409,309.045 210.8391,253.9493 249,220.0986 C256.1161,213.7863 258.9628,211.2297 267.5926,206.7331 " fill="none" style="stroke:#3B5B8C;stroke-width:1.0;"/><polygon fill="#3B5B8C" points="275.305,266.6279,265.4662,266.1838,270.649,268.4505,268.3823,273.6334,275.305,266.6279" style="stroke:#3B5B8C;stroke-width:1.0;"/><path d="M188.3139,347.992 C202.8274,324.5673 223.5736,297.1687 249,280.0986 C257.0515,274.6932 260.4357,272.4485 269.7178,268.815 " fill="none" style="stroke:#3B5B8C;stroke-width:1.0;"/><polygon fill="#3B5B8C" points="303.3314,324.466,293.5834,323.0603,298.5193,325.8238,295.7558,330.7597,303.3314,324.466" style="stroke:#3B5B8C;stroke-width:1.0;"/><path d="M229.289,352.4629 C235.8371,349.0752 242.4792,345.8845 249,343.0986 C266.1907,335.7542 279.7333,331.1244 297.5569,326.0954 " fill="none" style="stroke:#3B5B8C;stroke-width:1.0;"/><polygon fill="#3B5B8C" points="295.8873,541.0353,288.2471,534.8202,291.0614,539.7273,286.1544,542.5416,295.8873,541.0353" style="stroke:#3B5B8C;stroke-width:1.0;"/><path d="M183.7102,436.2106 C197.7625,464.2106 219.6341,499.0181 249,520.0986 C262.7446,529.9653 273.6921,535.0196 290.0963,539.4657 " fill="none" style="stroke:#3B5B8C;stroke-width:1.0;"/><polygon fill="#3B5B8C" points="264.8376,591.9858,259.2944,583.845,260.5875,589.3521,255.0804,590.6452,264.8376,591.9858" style="stroke:#3B5B8C;stroke-width:1.0;"/><path d="M174.1084,436.4624 C185.0051,478.8442 207.2592,541.7808 249,580.0986 C253.8273,584.5301 254.0717,585.3144 259.7374,588.8253 " fill="none" style="stroke:#3B5B8C;stroke-width:1.0;"/><polygon fill="#3B5B8C" points="298.351,392.0986,289.351,388.0986,293.351,392.0986,289.351,396.0986,298.351,392.0986" style="stroke:#3B5B8C;stroke-width:1.0;"/><path d="M229.0602,392.0986 C251.2164,392.0986 270.0693,392.0986 292.351,392.0986 " fill="none" style="stroke:#3B5B8C;stroke-width:1.0;"/><polygon fill="#3B5B8C" points="280.7963,690.0986,271.7963,686.0986,275.7963,690.0986,271.7963,694.0986,280.7963,690.0986" style="stroke:#3B5B8C;stroke-width:1.0;"/><path d="M63.2246,690.0986 C110.7119,690.0986 203.3897,690.0986 274.7963,690.0986 " fill="none" style="stroke:#3B5B8C;stroke-width:1.0;"/><polygon fill="#3B5B8C" points="270.8646,733.0876,262.7298,727.5356,265.946,732.1892,261.2924,735.4054,270.8646,733.0876" style="stroke:#3B5B8C;stroke-width:1.0;"/><path d="M63.2246,695.1625 C108.5463,703.4404 194.5939,719.1569 264.9622,732.0095 " fill="none" style="stroke:#3B5B8C;stroke-width:1.0;"/><polygon fill="#3B5B8C" points="274.6867,435.6426,267.7977,428.6041,270.0395,433.7977,264.8459,436.0396,274.6867,435.6426" style="stroke:#3B5B8C;stroke-width:1.0;"/><path d="M229.0602,417.5296 C243.6037,423.3031 253.7326,427.3241 269.1101,433.4288 " fill="none" style="stroke:#3B5B8C;stroke-width:1.0;"/><!--SRC=[bPHDQnD16CVl-oaUupaqByqcbR2mYOqjIAnjAZqKocHtansoErjcPssZ1WGF7aIme4UniOW8YYzuCK4yRF5xh9_4sSbBTvC9OYwRF3FFx_dFF__PQySKTLq43kfx0GFVjHWYI76i3WFc0SLTcu69gMKmx175xs5oZ2XomRUHwPrWqeKESdmhiM9Q7HGuhE4HraIk1Jh5o96lx-475kGBYSLZPFHGrzfZVSU2U2eYNIT9rodrJkgUur6uNgoLQfLwOZ7mBGFv5ZnK06gSrALUGCpfxeRun2iUDIsQPYpjhrPt46LSkTE7kaSwcBgMgMa2itvJJMDMRgwLonlvXZ98Q4G6utF_Ns6ICJTcmadkpZUAkfhZLU6liB7jEMQgVMhoSlE6hc_K6jFcD72WCCmux1x2m6Zu3PhTtr-YyMiCTZH-Ri2VnozXnuv6xmcKn8zMU8wXPtlHw8B0_V0SMdRudSUb7GuzHPcua9b3pF07Nxiy2o_WD1mQm3Zrgv41v8D-fE-tjg1QHMsVKTweQKljGiDqz-rDVRUvkQieLovbDfktrjQszDfsAoDEFNCWSt0rJ8XaITL6E0HYXs_9f0dc-SfSlhXymlMU1j7e7JiaLPy7-KO-f-tNix7ORAvKNOjhcj2qNnT7ECgLqfHwDFfqp2Vm1xzj4tiO5dCFYHWiGwjIj9f6tmt42Ppm9yHVR6vjD1fodt4qVYh5bgNOykAve_4h3AvGtEF2FmGoLaNAgd3M86b-8X72_DY9pqRy6BzPilp0ScSUnGtfiSqxhUriBhymDguUvVABHmY7t0-J_tD14YZ2TqYuJpnACdf1IYyigFHuPluXioW55PUomVNPuKUkDUcB3BWk1QwlJ8GRZS-C6TLUTTwIb5gINeGUfp8RHwDV3DhH-Daar3ndQODvNlgoKQfqb0ehtgiYHmD5cTzro6OVQTCNXJ9zNsIpMlBYoQggj5gMLYiBrLcsPDM2j5fCwTMIVzIAXPAKe_u5]--></g></svg>