<svg xmlns="http://www.w3.org/2000/svg" xmlns:xlink="http://www.w3.org/1999/xlink" contentStyleType="text/css" height="373px" preserveAspectRatio="none" style="width:321px;height:373px;background:#FFFFFF;" version="1.1" viewBox="0 0 321 373" width="321px" zoomAndPan="magnify"><title>Vai tr&#242; Kh&#225;ch</title><defs/><g><text fill="#000000" font-family="Arial" font-size="14" font-weight="bold" lengthAdjust="spacing" textLength="90.2412" x="111.8794" y="23.3608">Vai tr&#242; Kh&#225;ch</text><!--cluster ENG//HABIT--><g id="cluster_ENG//HABIT"><rect fill="none" height="326" rx="2.5" ry="2.5" style="stroke:#9AA9BF;stroke-width:1.0;" width="248" x="67" y="41.0986"/><text fill="#000000" font-family="Arial" font-size="12" font-weight="bold" lengthAdjust="spacing" textLength="69.334" x="156.333" y="54.5508">ENG//HABIT</text></g><!--cluster X?c th?c v? t?i kho?n c? nh?n--><g id="cluster_X&#225;c th&#7921;c v&#224; t&#224;i kho&#7843;n c&#225; nh&#226;n"><rect fill="none" height="294" rx="2.5" ry="2.5" style="stroke:#9AA9BF;stroke-width:1.0;" width="232" x="75" y="65.0986"/><text fill="#000000" font-family="Arial" font-size="12" font-weight="bold" lengthAdjust="spacing" textLength="172.7461" x="104.627" y="78.5508">X&#225;c th&#7921;c v&#224; t&#224;i kho&#7843;n c&#225; nh&#226;n</text></g><!--entity A_GUEST--><g id="elem_A_GUEST"><ellipse cx="23.0127" cy="173.5986" fill="#FFFFFF" rx="8" ry="8" style="stroke:#3B5B8C;stroke-width:0.5;"/><path d="M23.0127,181.5986 L23.0127,208.5986 M10.0127,189.5986 L36.0127,189.5986 M23.0127,208.5986 L10.0127,223.5986 M23.0127,208.5986 L36.0127,223.5986 " fill="none" style="stroke:#3B5B8C;stroke-width:0.5;"/><text fill="#000000" font-family="Arial" font-size="12" lengthAdjust="spacing" textLength="34.0254" x="6" y="236.5508">Kh&#225;ch</text></g><g id="elem_UC_AUTH_01"><ellipse cx="190.909" cy="109.9869" fill="#FFFFFF" rx="79.409" ry="20.8883" style="stroke:#3B5B8C;stroke-width:0.5;"/><text fill="#000000" font-family="Arial" font-size="12" lengthAdjust="spacing" textLength="96.0586" x="142.8797" y="106.7901">&#272;&#259;ng k&#253; t&#224;i kho&#7843;n</text><text fill="#000000" font-family="Arial" font-size="10" lengthAdjust="spacing" textLength="59.4482" x="161.1848" y="118.6803">UC-AUTH-01</text></g><g id="elem_UC_AUTH_02"><ellipse cx="191.0215" cy="169.9869" fill="#FFFFFF" rx="53.5215" ry="20.8883" style="stroke:#3B5B8C;stroke-width:0.5;"/><text fill="#000000" font-family="Arial" font-size="12" lengthAdjust="spacing" textLength="58.7168" x="161.6631" y="166.7901">&#272;&#259;ng nh&#7853;p</text><text fill="#000000" font-family="Arial" font-size="10" lengthAdjust="spacing" textLength="59.4482" x="161.2974" y="178.6803">UC-AUTH-02</text></g><g id="elem_UC_AUTH_03"><ellipse cx="190.8691" cy="231.9725" fill="#FFFFFF" rx="99.8691" ry="22.3738" style="stroke:#3B5B8C;stroke-width:0.5;"/><text fill="#000000" font-family="Arial" font-size="12" lengthAdjust="spacing" textLength="134.748" x="123.4951" y="228.7757">Y&#234;u c&#7847;u c&#7845;p l&#7841;i m&#7853;t kh&#7849;u</text><text fill="#000000" font-family="Arial" font-size="10" lengthAdjust="spacing" textLength="59.4482" x="161.145" y="240.6658">UC-AUTH-03</text></g><g id="elem_UC_AUTH_04"><ellipse cx="191.0675" cy="320.2442" fill="#FFFFFF" rx="108.0675" ry="30.6455" style="stroke:#3B5B8C;stroke-width:0.5;"/><text fill="#000000" font-family="Arial" font-size="12" lengthAdjust="spacing" textLength="136.5879" x="122.7736" y="310.148">&#272;&#7863;t m&#7853;t kh&#7849;u m&#7899;i sau khi</text><text fill="#000000" font-family="Arial" font-size="12" lengthAdjust="spacing" textLength="61.2656" x="160.4347" y="323.9468">&#273;&#432;&#7907;c duy&#7879;t</text><text fill="#000000" font-family="Arial" font-size="10" lengthAdjust="spacing" textLength="59.4482" x="161.3434" y="335.8369">UC-AUTH-04</text></g><polygon fill="#3B5B8C" points="111.2551,120.3369,101.5044,118.9497,106.4456,121.7038,103.6915,126.6449,111.2551,120.3369" style="stroke:#3B5B8C;stroke-width:1.0;"/><path d="M40.0038,169.9954 C46.9227,159.0422 55.9862,147.6631 67,140.0986 C80.1358,131.0768 89.9251,126.3991 105.4836,121.9772 " fill="none" style="stroke:#3B5B8C;stroke-width:1.0;"/><polygon fill="#3B5B8C" points="137.2923,179.883,127.7088,177.6123,132.3782,180.8055,129.1849,185.4749,137.2923,179.883" style="stroke:#3B5B8C;stroke-width:1.0;"/><path d="M40.246,198.6992 C45.8655,197.5379 52.206,196.2437 58,195.0986 C84.0849,189.9436 107.217,185.5293 131.3954,180.9901 " fill="none" style="stroke:#3B5B8C;stroke-width:1.0;"/><polygon fill="#3B5B8C" points="90.7609,214.1638,82.6157,208.627,85.8406,213.2746,81.193,216.4995,90.7609,214.1638" style="stroke:#3B5B8C;stroke-width:1.0;"/><path d="M40.219,205.0298 C52.701,207.2856 65.1939,209.5433 84.8565,213.0968 " fill="none" style="stroke:#3B5B8C;stroke-width:1.0;"/><polygon fill="#3B5B8C" points="106.6311,289.5862,100.4342,281.9312,102.1779,287.3127,96.7965,289.0563,106.6311,289.5862" style="stroke:#3B5B8C;stroke-width:1.0;"/><path d="M40.0117,231.8447 C47.1388,243.0383 56.3427,255.1979 67,264.0986 C78.7956,273.9501 87.2634,279.6981 101.2873,286.8579 " fill="none" style="stroke:#3B5B8C;stroke-width:1.0;"/><polygon fill="#3B5B8C" points="191,254.6787,187,263.6787,191,259.6787,195,263.6787,191,254.6787" style="stroke:#3B5B8C;stroke-width:1.0;"/><path d="M191,289.3205 C191,277.9208 191,271.2158 191,260.6787 " fill="none" style="stroke:#3B5B8C;stroke-width:1.0;stroke-dasharray:7.0,7.0;"/><text fill="#000000" font-family="Arial" font-size="12" lengthAdjust="spacing" textLength="49.377" x="155" y="277.0508">&#171;extend&#187;</text><!--SRC=[bPD1YzD05CVlyocUyLpRj7NNBg6GrEsk28lGLXGMofXCaw79J9bCNBlIamUlUlQoTH5H4DIBaE8fnU-HR-8qhRk9EnxC8MJ-xxtV- -VDpAsPm7w48SHpdaY88o8nmoWa4mcIWw1-8C6ZWhYISeRYAMKpB704SO0zVaQP3nCSngGKySW49w7iSoPFS4J05XI7-lY0dXCmcwNW3BjJx9E1d8S4DbqnyyCotHQ2d_Luo0NSRZbtdNkzKZ29YOjZ0YyHWAD8lk09ytRP_UBPHBZmYAWoRkHRrYCif78Upg77sOIAY7ZTRe5ftz-hOlwPxEplTym-MfGyObUgll_liCou6ioMKyus-orxhw7KOhx569_nqAkKxuPyixXZsnsdlokk0XT8KgbWZp45ARBly338bcw0qFP_ZEtI01o3FJuQ7Gw625tRD0vFZkhrOzjvC3IAjdyi64zK6SWWNtrpuNbs0JAxe30DU9vUCd2p9R0WUy-sHN2rmSRwpVgLEdlJx6UbufHPiJfJ1sQZE-hLxD7mkDOmhVf6wnRUHhtnHXqtJ2sF1NdwPQQZDBMKPfNoDFkSW9kd7ultXnc4URga42ceL1Rpz5EYOxUqxDRV3lFqXwomr6BrZaAC4oNGKxP- - -jhlhfqmKlc-UgrrFLgQtkrLQ-5scEqspkerRhbMMdbfbvkwUKsklw4E-LyE03B8YyaOUhE_0O0]--></g></svg>